<?xml version="1.0" encoding="UTF-8"?>
<svg version="1.1" viewBox="0 0 50 50" xmlns="http://www.w3.org/2000/svg">
<title>4F6FBEB5-E427-4902-B00F-2B446DD995E1</title>
<desc>Created with sketchtool.</desc>
<g fill="none" fill-rule="evenodd" stroke-linecap="round" stroke-linejoin="round">
<g transform="translate(-800 -6470)" stroke-width="1.5">
<g transform="translate(0 4983)">
<g transform="translate(0 1438)">
<g transform="translate(800 49)">
<circle cx="25" cy="25" r="23.958" stroke="#13AA52"/>
<path d="m23.65 39.079c-0.15569 0.29705-0.49394 0.44959-0.81965 0.36965-0.32571-0.079948-0.55489-0.37176-0.55535-0.70715v-10.288c0-0.40271-0.32646-0.72917-0.72917-0.72917h-10.296c-0.33538-4.601e-4 -0.6272-0.22963-0.70715-0.55535-0.079948-0.32571 0.072593-0.66396 0.36965-0.81965l24.481-12.727c0.28224-0.14677 0.62706-0.093618 0.852 0.13133s0.2781 0.56976 0.13133 0.852l-12.727 24.473z" stroke="#116149"/>
</g>
</g>
</g>
</g>
</g>
</svg>
